Codec ID/Hint : XviD 
Duration : 1h 18mn 
Bit rate : 1 403 Kbps 
Width : 704 pixels 
Height : 384 pixels 
Display aspect ratio : 16/9 
Frame rate : 25.000 fps 
Resolution : 24 bits 
Colorimetry : 4:2:0 
Scan type : Progressive 
Bits/(Pixel*Frame) : 0.208 
Stream size : 792 MiB (91%) 

Codec ID/Hint : MP3 
Duration : 1h 18mn 
Bit rate mode : Variable 
Bit rate : 125 Kbps 
Nominal bit rate : 128 Kbps 
Channel(s) : 2 channels 
Sampling rate : 48.0 KHz 
Resolution : 16 bits 
Stream size : 70.7 MiB (8%)